<svg height="512pt" viewBox="0 0 512 512" width="512pt" xmlns="http://www.w3.org/2000/svg"><path d="m507.605469 309.660156-48.199219-48.199218c-2.8125-2.8125-6.628906-4.394532-10.605469-4.394532h-65.332031v-209.933594c0-25.988281-21.148438-47.132812-47.136719-47.132812h-224.933593c-3.976563 0-7.792969 1.578125-10.605469 4.394531l-96.398438 96.398438c-2.816406 2.8125-4.394531 6.628906-4.394531 10.605469v353.46875c0 12.597656 4.90625 24.4375 13.808594 33.328124 8.902344 8.902344 20.738281 13.804688 33.324218 13.804688h449.867188c8.285156 0 15-6.714844 15-15v-176.734375c0-3.976563-1.578125-7.792969-4.394531-10.605469zm-172.339844-22.59375h82.46875v34.269532h-82.46875zm-222.796875-251.921875v60.1875c0 9.449219-7.6875 17.132813-17.136719 17.132813h-60.1875zm-77.453125 441.832031c-3.234375-3.230468-5.015625-7.53125-5.015625-12.109374v-322.398438h65.332031c25.988281 0 47.136719-21.144531 47.136719-47.132812v-65.335938h193.863281c9.449219 0 17.136719 7.6875 17.136719 17.132812v209.933594h-97.46875c-8.285156 0-15 6.714844-15 15v209.933594h-193.867188c-4.574218 0-8.875-1.78125-12.117187-5.023438zm300.25 5.023438v-66.398438h82.46875v66.398438zm146.734375 0h-34.265625v-81.398438c0-8.285156-6.71875-15-15-15h-112.46875c-8.28125 0-15 6.714844-15 15v81.398438h-34.265625v-194.933594h34.265625v49.269532c0 8.28125 6.71875 15 15 15h112.46875c8.285156 0 15-6.71875 15-15v-44.121094l34.265625 34.265625zm0 0"/><path d="m384.53125 433.800781h-16.0625c-8.285156 0-15 6.714844-15 15 0 8.285157 6.714844 15 15 15h16.0625c8.285156 0 15-6.714843 15-15 0-8.285156-6.714844-15-15-15zm0 0"/><path d="m95.332031 222.800781h192.800781c8.285157 0 15-6.714843 15-15 0-8.285156-6.714843-15-15-15h-192.800781c-8.28125 0-15 6.714844-15 15 0 8.285157 6.71875 15 15 15zm0 0"/><path d="m95.332031 287.066406h96.402344c8.28125 0 15-6.714844 15-15s-6.71875-15-15-15h-96.402344c-8.28125 0-15 6.714844-15 15s6.71875 15 15 15zm0 0"/><path d="m191.734375 321.332031h-96.402344c-8.28125 0-15 6.71875-15 15 0 8.285157 6.71875 15 15 15h96.402344c8.28125 0 15-6.714843 15-15 0-8.28125-6.714844-15-15-15zm0 0"/><path d="m191.734375 385.601562h-96.402344c-8.28125 0-15 6.714844-15 15 0 8.28125 6.71875 15 15 15h96.402344c8.28125 0 15-6.71875 15-15 0-8.285156-6.714844-15-15-15zm0 0"/></svg>