<svg height="512pt" viewBox="0 0 512 512" width="512pt" xmlns="http://www.w3.org/2000/svg"><path d="m191.734375 192.800781h-96.402344c-8.28125 0-15 6.714844-15 15 0 8.285157 6.71875 15 15 15h96.402344c8.28125 0 15-6.714843 15-15 0-8.285156-6.714844-15-15-15zm0 0"/><path d="m191.734375 257.066406h-96.402344c-8.28125 0-15 6.714844-15 15s6.71875 15 15 15h96.402344c8.28125 0 15-6.714844 15-15s-6.714844-15-15-15zm0 0"/><path d="m191.734375 321.332031h-96.402344c-8.28125 0-15 6.71875-15 15 0 8.285157 6.71875 15 15 15h96.402344c8.28125 0 15-6.714843 15-15 0-8.28125-6.714844-15-15-15zm0 0"/><path d="m191.734375 385.601562h-96.402344c-8.28125 0-15 6.714844-15 15 0 8.28125 6.71875 15 15 15h96.402344c8.28125 0 15-6.71875 15-15 0-8.285156-6.714844-15-15-15zm0 0"/><path d="m512 239.933594c0-25.988282-21.144531-47.132813-47.132812-47.132813h-35.015626c-5.574218-22.816406-23.5625-40.804687-46.382812-46.386719v-99.28125c0-12.597656-4.90625-24.4375-13.808594-33.328124-8.902344-8.902344-20.738281-13.804688-33.328125-13.804688h-224.933593c-3.976563 0-7.792969 1.582031-10.605469 4.394531l-96.398438 96.398438c-2.8125 2.8125-4.394531 6.628906-4.394531 10.605469v353.46875c0 25.988281 21.144531 47.132812 47.132812 47.132812h353.46875c43.707032 0 79.265626-35.558594 79.265626-79.265625v-148.128906c18.65625-6.28125 32.132812-23.925781 32.132812-44.671875zm-113.917969-47.132813h-59.234375c5.484375-10.789062 16.699219-18.199219 29.621094-18.199219 12.910156 0 24.125 7.410157 29.613281 18.199219zm-285.613281-157.65625v60.1875c0 9.449219-7.6875 17.132813-17.132812 17.132813h-60.191407zm-82.46875 429.722657v-322.398438h65.332031c25.988281 0 47.132813-21.144531 47.132813-47.132812v-65.335938h193.867187c4.574219 0 8.878907 1.78125 12.117188 5.023438 3.234375 3.230468 5.019531 7.53125 5.019531 12.109374v99.277344c-22.820312 5.574219-40.8125 23.5625-46.390625 46.390625h-35.011719c-25.988281 0-47.132812 21.140625-47.132812 47.132813 0 20.746094 13.476562 38.390625 32.132812 44.671875v148.125c0 18.609375 6.460938 35.730469 17.238282 49.269531h-227.171876c-9.445312 0-17.132812-7.6875-17.132812-17.132812zm370.601562 17.132812s31.769532 0-64.269531 0c-27.164062 0-49.265625-22.101562-49.265625-49.265625v-145.667969h162.800782v145.667969c0 27.164063-22.101563 49.265625-49.265626 49.265625zm64.265626-224.933594h-192.800782c-9.449218 0-17.132812-7.683594-17.132812-17.132812 0-9.449219 7.683594-17.132813 17.132812-17.132813h192.800782c9.445312 0 17.132812 7.683594 17.132812 17.132813 0 9.449218-7.6875 17.132812-17.132812 17.132812zm0 0"/><path d="m336.332031 321.332031c-8.28125 0-15 6.71875-15 15v96.402344c0 8.28125 6.71875 15 15 15 8.285157 0 15-6.71875 15-15v-96.402344c0-8.28125-6.714843-15-15-15zm0 0"/><path d="m400.601562 321.332031c-8.285156 0-15 6.71875-15 15v96.402344c0 8.28125 6.714844 15 15 15 8.28125 0 15-6.71875 15-15v-96.402344c0-8.28125-6.71875-15-15-15zm0 0"/></svg>